<?xml version="1.0" encoding="utf-8"?>
<!-- Generator: Adobe Illustrator 23.0.2, SVG Export Plug-In . SVG Version: 6.00 Build 0)  -->
<svg version="1.1" id="Layer_1" xmlns="http://www.w3.org/2000/svg" xmlns:xlink="http://www.w3.org/1999/xlink" x="0px" y="0px"
	 viewBox="0 0 87.3 100.9" style="enable-background:new 0 0 87.3 100.9;" xml:space="preserve">
<style type="text/css">
	.st0{fill:#9D2868;}
	.st1{fill:#FECAE7;}
	.st2{fill:#FDFDFD;}
	.st3{fill:#9E2A6A;}
	.st4{fill:#9F2C6B;}
	.st5{fill:#FCFAFB;}
</style>
<g>
	<g>
		<path class="st0" d="M0,39.6C0.1,19.5,14.8,2.9,34.6,0.3c19.1-2.5,38.1,10.1,43,28.8c1.8,6.9,1.9,13.9-0.3,20.7
			c-0.8,2.4-0.3,4,1.6,5.6c9.9,8.1,10.3,22.1,5,30.8c-6.4,10.3-18.9,14.2-30.6,9.1c-3.2-1.4-4.7-0.6-6.8,1.5
			c-4.7,4.9-8.7,5.3-12.9,0.9C20.9,84.7,9.5,70.7,2.8,53.4C1,48.9-0.2,44.2,0,39.6z"/>
		<path class="st1" d="M39.5,6.1c21.2,0,36.5,18.6,32.7,39.6c-0.6,3.4-1.8,4.7-5.6,4.3c-13.9-1.5-24.8,6.8-27.1,20.5
			c-1,6,0.6,11.6,4,16.5c2.3,3.3-0.6,4.4-2,6.1c-1.7,2-3.2,0.8-4.6-0.7C25.3,80.3,14.7,67.4,8.5,51.4C0,29.2,15.8,6.1,39.5,6.1z"/>
		<path class="st2" d="M81.1,74.2C80.9,84.3,73,91.8,62.6,91.5c-9.7-0.2-17.4-8.4-17.4-18.2c0.1-9.7,8.5-17.9,18.5-17.7
			C73.7,55.9,81.3,64,81.1,74.2z"/>
		<path class="st3" d="M54,36.3c-0.1,8.2-6.9,14.9-15,14.8c-8.4-0.1-15.2-7-15-15.4c0.2-8.2,7.1-14.8,15.3-14.6
			C47.5,21.3,54.2,28.1,54,36.3z"/>
		<path class="st4" d="M75.1,69.4c-0.2,0.5-0.3,1.6-0.9,2.3c-3.3,4-6.8,7.7-10.9,10.8c-1.8,1.4-3.9,1.1-5.5-0.3
			c-1.9-1.6-3.7-3.4-5.2-5.3c-1.3-1.6-1.9-3.5-0.2-5.4c1.5-1.7,3.7-2.4,5.3-0.9c3.2,2.7,5,0.7,7-1.4c1.2-1.3,2.5-2.7,4-3.7
			C71.7,63.7,75,65.5,75.1,69.4z"/>
		<path class="st5" d="M39.1,45.1c-4.9,0-8.9-3.9-9-8.8c-0.1-5.1,4.1-9.3,9.2-9.2c4.9,0.1,8.8,4.2,8.8,9.1
			C48,41.1,44,45.1,39.1,45.1z"/>
	</g>
</g>
<g>
</g>
<g>
</g>
<g>
</g>
<g>
</g>
<g>
</g>
<g>
</g>
<g>
</g>
<g>
</g>
<g>
</g>
<g>
</g>
<g>
</g>
<g>
</g>
<g>
</g>
<g>
</g>
<g>
</g>
</svg>
