<?xml version="1.0" encoding="utf-8"?>
<!-- Generator: Adobe Illustrator 23.0.2, SVG Export Plug-In . SVG Version: 6.00 Build 0)  -->
<svg version="1.1" id="Layer_1" xmlns="http://www.w3.org/2000/svg" xmlns:xlink="http://www.w3.org/1999/xlink" x="0px" y="0px"
	 viewBox="0 0 72.6 84.1" style="enable-background:new 0 0 72.6 84.1;" xml:space="preserve">
<style type="text/css">
	.st0{fill:#365C73;}
	.st1{fill:#9BD9FE;}
	.st2{fill:#FDFDFD;}
	.st3{fill:#385F76;}
	.st4{fill:#3D6278;}
	.st5{fill:#FCFCFC;}
</style>
<g>
	<path class="st0" d="M32.7,0c21.5,0,36.9,19.5,31.8,40.5c-0.7,2.9-0.2,4.4,1.9,6.4c6.8,6.5,8.1,17.1,3.4,24.7
		c-5.1,8.3-15,11.9-24.4,8.2c-3.3-1.3-5.3-1.2-7.6,1.5c-2.4,2.8-5.9,3.9-8.8,1C16.9,70.3,5.7,57.4,1.1,40.5C-4.4,19.7,11.3,0,32.7,0
		z"/>
	<path class="st1" d="M60.4,33.2c-0.1,1.5-0.3,3.5-0.6,5.5c-0.3,2.3-1.5,3.4-4.1,3c-8-1.3-14.6,1.5-19.2,7.9
		c-5.1,7-5.1,14.7-0.9,22.1c1.4,2.4,0.9,3.8-0.7,5.6c-1.5,1.7-2.7,1.5-4.1,0C20.6,66.4,10.9,55.1,6.3,40.7
		c-3.5-11.2-0.7-21.2,8.3-28.8C23.4,4.4,33.5,2.7,44,7.5C54.7,12.3,60.4,20.8,60.4,33.2z"/>
	<path class="st2" d="M67.4,61.6c-0.1,8.4-6.5,14.6-15,14.6c-8.5,0-14.9-6.8-14.8-15.4c0.2-8,7.3-14.8,15.3-14.5
		C61.3,46.5,67.6,53.3,67.4,61.6z"/>
	<path class="st3" d="M20,30c0.1-7,5.4-12.3,12.4-12.3c6.9,0,12.6,5.5,12.6,12.2c0,6.9-6,13-12.7,12.7C25.4,42.4,19.9,36.7,20,30z"
		/>
	<path class="st4" d="M53.1,60c1.8,0,3.6,0,5.4,0c1.8,0,2.8,0.9,2.7,2.8C61.1,64.5,60,65,58.5,65c-3.5,0-6.9,0-10.4,0
		c-1.6,0-3-0.6-3-2.5c0-1.8,1.3-2.5,3-2.5C49.8,60,51.4,60,53.1,60C53.1,60,53.1,60,53.1,60z"/>
	<path class="st5" d="M39.9,30c0,4.1-3.7,7.7-7.7,7.6c-4-0.1-7.2-3.5-7.3-7.5c0-4.2,3.4-7.6,7.6-7.5C36.6,22.7,39.9,26.1,39.9,30z"
		/>
</g>
<g>
</g>
<g>
</g>
<g>
</g>
<g>
</g>
<g>
</g>
<g>
</g>
<g>
</g>
<g>
</g>
<g>
</g>
<g>
</g>
<g>
</g>
<g>
</g>
<g>
</g>
<g>
</g>
<g>
</g>
</svg>
