<?xml version="1.0" encoding="utf-8"?>
<!-- Generator: Adobe Illustrator 23.0.2, SVG Export Plug-In . SVG Version: 6.00 Build 0)  -->
<svg version="1.1" id="Layer_1" xmlns="http://www.w3.org/2000/svg" xmlns:xlink="http://www.w3.org/1999/xlink" x="0px" y="0px"
	 viewBox="0 0 82.5 82.6" style="enable-background:new 0 0 82.5 82.6;" xml:space="preserve">
<style type="text/css">
	.st0{fill:#F05E44;}
	.st1{fill:#F05E45;}
	.st2{fill:#FEC7BD;}
	.st3{fill:#FEFDFD;}
	.st4{fill:#F1654D;}
</style>
<g>
	<path class="st0" d="M25.2,77.6c-6.8,0-13.6-0.1-20.5,0c-3.3,0-5.1-1.1-4.7-4.7c0.1-1.5,0-3,0-4.5c0-13,1.4-14.9,13.8-18.6
		c10.1-3,20.4-2.8,30.7-1.5c2.2,0.3,3.7,0,5.4-1.4c8.7-6.6,19.4-5.9,26.7,1.6c6.9,7,7.8,17.8,2.1,25.5c-6.4,8.7-16.9,11-26.6,5.4
		c-2.4-1.4-4.8-2-7.5-2C38.2,77.7,31.7,77.6,25.2,77.6z"/>
	<path class="st1" d="M32.6,0c11,0,19.8,9,19.8,20.1c0,11.8-9.8,22.6-20.3,22.5c-10.1-0.1-19.8-11.3-19.7-22.7C12.5,9,21.7,0,32.6,0
		z"/>
	<path class="st2" d="M25,72.7c-5.5,0-11-0.1-16.4,0c-2.6,0.1-3.4-0.9-3.5-3.5C4.5,58.9,5.5,57.5,15.5,54.6
		c8.3-2.4,16.8-1.9,25.2-1.7c2.5,0.1,3.8,0.9,2.7,3.7c-1.6,4.2-1.5,8.5,0.4,12.6c1.3,2.8,0.3,3.5-2.4,3.5C36,72.7,30.5,72.7,25,72.7
		z"/>
	<path class="st3" d="M77.5,62.5c0.1,8.4-6.8,15.2-15.2,15.1c-8-0.1-14.8-7.2-14.7-15.3c0.1-8.2,6.7-14.7,15.1-14.7
		C70.9,47.6,77.4,54.1,77.5,62.5z"/>
	<path class="st2" d="M47.4,20.2c0,9-7.6,17.6-15.2,17.4C25,37.4,17.4,28.3,17.4,20c0-7.9,7-15,14.9-15C40.9,5,47.4,11.5,47.4,20.2z
		"/>
	<path class="st4" d="M62.6,60c1.8,0,3.6,0,5.5,0c1.6,0,2.6,1,2.6,2.4c0,1.5-0.9,2.5-2.5,2.5c-4,0-7.9-0.1-11.9,0
		c-1.6,0-2.1-1.1-2.2-2.1c-0.2-1.5,0.9-2.6,2.2-2.7C58.3,59.9,60.5,60.1,62.6,60C62.6,60.1,62.6,60,62.6,60z"/>
</g>
<g>
</g>
<g>
</g>
<g>
</g>
<g>
</g>
<g>
</g>
<g>
</g>
<g>
</g>
<g>
</g>
<g>
</g>
<g>
</g>
<g>
</g>
<g>
</g>
<g>
</g>
<g>
</g>
<g>
</g>
</svg>
