<?xml version="1.0" encoding="utf-8"?>
<!-- Generator: Adobe Illustrator 23.0.2, SVG Export Plug-In . SVG Version: 6.00 Build 0)  -->
<svg version="1.1" id="Layer_1" xmlns="http://www.w3.org/2000/svg" xmlns:xlink="http://www.w3.org/1999/xlink" x="0px" y="0px"
	 viewBox="0 0 77.4 90" style="enable-background:new 0 0 77.4 90;" xml:space="preserve">
<style type="text/css">
	.st0{fill:#9D2768;}
	.st1{fill:#FECAE7;}
	.st2{fill:#FDFCFD;}
	.st3{fill:#FCC6E4;}
	.st4{fill:#A02C6C;}
	.st5{fill:#9F2C6B;}
	.st6{fill:#A33270;}
	.st7{fill:#A02E6D;}
	.st8{fill:#AC417C;}
</style>
<g>
	<path class="st0" d="M0,45.2c0-10,0-20,0-30c0-3.6,0.1-3.6,3.6-3.7c3-0.1,6,0,9,0c1.6,0,3.3,0.4,4.1-1.8c0.5-1.2,1.9-1.1,3.1-1
		c1.7,0.1,2.6-0.2,3.6-2.3C26,1,32.4-1.3,37.6,0.7c3,1.1,5,3.4,6.3,6c0.7,1.5,1.3,2,2.8,2c1.3,0,2.9-0.4,3.7,0.8
		c1.5,2.2,3.6,2,5.8,1.9c2.7,0,5.3-0.1,8,0c2.9,0.1,3,0.2,3,3.2c0.1,2.8,0,5.7,0,8.5c0,8.7,0,17.3,0,26c0,2.1,0.5,3.4,2.4,4.9
		c7.4,5.5,9,14,7,21.3c-2,7.6-7.4,12.7-15,14.1c-7.8,1.5-15-0.5-19.9-7.1c-1.6-2.1-3-2.6-5.3-2.6c-10,0.1-20,0-30,0
		c-1.2,0-2.3,0-3.5,0c-2.1,0-3-1.1-2.9-3.2c0-1.3,0-2.7,0-4C0,63.5,0,54.3,0,45.2z"/>
	<path class="st1" d="M38,74.8c-10.5,0-20.7,0-30.8,0c-2.4,0-2.1-1.5-2.1-2.9c0-17.5,0-35,0-52.5c0-0.3,0-0.7,0-1
		c-0.1-1.2,0.4-1.9,1.7-1.8c3,0,5.9,0,8.7,0c1.1,1.5,0.6,2.9,0.7,4.1c0.1,2.1,1.1,3,3.1,3c9.7,0,19.3,0,29,0c2.3,0,2.7-0.7,2.9-3.6
		c0.3-3.4,0.3-3.5,3.6-3.5c2.3,0,5.3-0.7,6.8,0.4c1.9,1.5,0.7,4.7,0.7,7.1c0.1,7.5,0.1,15,0,22.5c0,1.3,0.3,2.6-0.4,3.8
		c-2.1-0.6-1.7-2.3-1.7-3.7c0-7.5,0-15,0-22.5c0-1,0-2,0-3c-0.1-1.6-1-2.5-2.5-2.4c-1.6,0-2.3,1.1-2.4,2.6c-0.1,1,0,2,0,3
		c0,7.2,0,14.3,0,21.5c0,3.9,0,3.9-3.6,5.1c-7,2.5-11.8,7-13.4,14.5c-0.3,1.5-1.2,2.2-2.8,2.2c-6.7,0-13.3,0-20,0
		c-2.6,0-3-0.5-3-3.3c-0.1-6.7,0-13.3,0-20c0-6.7,0-13.3,0-20c0-1,0-2,0-3c-0.1-1.5-0.9-2.4-2.5-2.6c-1.6-0.1-1.8,1.3-2.2,2.3
		c-0.4,0.9-0.3,1.9-0.3,2.9c0,14.5,0,29,0,43.5c0,4.3,0.9,5.2,5.3,5.2c7.2,0,14.3,0,21.5,0C35.4,72.6,37.1,72.1,38,74.8z"/>
	<path class="st2" d="M72.2,70.2c0,8.3-6.4,14.6-14.8,14.6c-10,0-14.9-6.9-15-14.9c-0.1-8.1,6.3-14.9,14.7-15
		C64.5,54.8,72.3,59.5,72.2,70.2z"/>
	<path class="st3" d="M33.6,18.7c-3.5,0-7-0.1-10.5,0c-2,0.1-2.1-1-2.1-2.5c0-1.4,0-2.7,2-2.5c2.6,0.3,4.2-0.6,4.2-3.4
		c0-0.1,0.2-0.3,0.2-0.4c1.1-2.8,3.1-4.7,6.2-5c2.6-0.2,5.7,2.6,6.3,5.9c0.4,2.4,1.6,2.9,3.7,3c2.2,0.1,3.1,1.9,2.4,4
		c-0.3,1-1.2,1-2,1C40.6,18.7,37.1,18.7,33.6,18.7z"/>
	<path class="st4" d="M33.7,32.6c4,0,8,0,12,0c1.2,0,2.4,0,2.5,1.7c0.2,1.8-0.6,3-2.2,3.3c-0.5,0.1-1,0-1.5,0c-7.3,0-14.6,0-22,0
		c-0.7,0-1.4,0-1.9-0.2c-1.5-0.6-1.7-1.9-1.5-3.3c0.2-1.3,1.1-1.5,2.2-1.5C25.4,32.6,29.6,32.6,33.7,32.6z"/>
	<path class="st5" d="M33.6,48.7c-3.8,0-7.6,0-11.4,0c-1.7,0-2.9-0.5-3.2-2.4c-0.2-1.6,1-2.6,3.3-2.6c7.4-0.1,14.9,0,22.3,0
		c0.8,0,1.7-0.2,2.4,0.5c0.7,0.7,2.1,1.1,1.4,2.7c-0.5,1.1-1,1.9-2.5,1.9C41.9,48.6,37.7,48.7,33.6,48.7
		C33.6,48.7,33.6,48.7,33.6,48.7z"/>
	<path class="st6" d="M25.9,59.8c-1.5,0-3,0-4.5,0c-1.2,0-2.3-0.1-2.4-1.7c-0.1-1.5,0.4-3,1.8-3.1c3.6-0.3,7.3-0.5,10.9,0.1
		c1,0.2,2.2,1.1,1.9,2.5c-0.3,1.2-0.9,2.5-2.7,2.3C29.3,59.6,27.6,59.8,25.9,59.8z"/>
	<path class="st7" d="M54.8,73.1c-1.2-0.8-2.4-0.4-3.5-0.6c-1.3-0.2-2.1-1-2.2-2.3c-0.1-1.3,0.7-2.2,1.9-2.6c0.5-0.2,1-0.1,1.5-0.1
		c2,0.3,2.7-0.7,2.5-2.6c-0.1-0.6,0-1.4,0.3-1.9c0.5-0.9,1.3-1.5,2.4-1.4c0.9,0.1,1.6,0.6,1.9,1.3c0.3,0.7,0.3,1.6,0.3,2.4
		c0,1.3,0.3,2.3,1.9,2.1c0.7-0.1,1.3,0,2,0.1c1.2,0.2,1.4,1.4,1.7,2.2c0.4,0.9-0.6,1.4-1.1,2c-0.7,0.8-1.8,0.8-2.8,0.8
		c-1.3-0.1-1.8,0.6-1.7,1.8c0,0.2,0,0.3,0,0.5c0,1.9-1,3.4-2.8,3.2c-2-0.1-2.4-1.9-2.2-3.7C55,74,54.8,73.5,54.8,73.1z"/>
	<path class="st8" d="M34,13.7c-1.8-0.1-2.8-0.9-2.9-2.4c0-1.6,0.8-2.5,2.4-2.6c1.5-0.1,2.5,0.8,2.6,2.4
		C36.2,12.7,35.1,13.4,34,13.7z"/>
</g>
<g>
</g>
<g>
</g>
<g>
</g>
<g>
</g>
<g>
</g>
<g>
</g>
<g>
</g>
<g>
</g>
<g>
</g>
<g>
</g>
<g>
</g>
<g>
</g>
<g>
</g>
<g>
</g>
<g>
</g>
</svg>
