<?xml version="1.0" encoding="utf-8"?>
<!-- Generator: Adobe Illustrator 23.0.2, SVG Export Plug-In . SVG Version: 6.00 Build 0)  -->
<svg version="1.1" id="Layer_1" xmlns="http://www.w3.org/2000/svg" xmlns:xlink="http://www.w3.org/1999/xlink" x="0px" y="0px"
	 viewBox="0 0 77.5 80.4" style="enable-background:new 0 0 77.5 80.4;" xml:space="preserve">
<style type="text/css">
	.st0{fill:#059077;}
	.st1{fill:#9CF5E5;}
	.st2{fill:#FCFDFD;}
	.st3{fill:#069077;}
	.st4{fill:#0E937C;}
</style>
<g>
	<path class="st0" d="M0,41.6c0-8.2,0-16.3,0-24.5c0-6.5,1.9-8.6,8.5-9.1c2.8-0.2,3-1.6,2.7-3.5c-0.4-3.3,0.7-4.4,4.1-4.3
		c2.9,0.1,4,1.1,3.6,3.8c-0.4,3.1,0.9,4,3.9,4c7.5-0.2,15-0.2,22.5,0c2.8,0.1,3.8-0.9,3.8-3.7c0-3.6,2.2-4.9,5.8-3.9
		c1.6,0.4,1.6,1.6,1.5,2.7c-0.5,3.5,0.6,5,4.5,5c4.6,0,7,3.2,7,8.6c0.1,7.2,0.1,14.3,0,21.5c-0.1,3.1,0.5,5.5,3.1,7.8
		c7.6,6.9,8.5,18.5,2.5,26.3c-6.5,8.5-17.7,10.7-26.7,5.1c-2.3-1.4-4.4-2-7-2c-10.2,0.1-20.3,0-30.5,0c-6.9,0-9.4-2.4-9.4-9.2
		C0,57.9,0,49.8,0,41.6z"/>
	<path class="st1" d="M34.2,26.1c8.3,0,16.6,0.1,25-0.1c3.3-0.1,4.7,0.9,4.2,4.3c-0.1,0.7,0,1.3,0,2c-0.1,2.5,0.7,5.5-0.4,7.4
		c-1.3,2.3-4.5,0.4-6.8,0.5C43.4,41,34.4,54.3,38.5,66.5c1.3,3.8,1.3,3.9-2.8,3.9c-8.2,0-16.3,0.1-24.5,0c-5.1,0-6.2-1.1-6.2-6.2
		c-0.1-11.3,0.1-22.6-0.1-34C4.8,26.9,6,26,9.2,26.1C17.5,26.3,25.8,26.1,34.2,26.1z"/>
	<path class="st2" d="M72.4,60.5c0,8.3-6.6,14.8-15,14.8c-8.4,0-15.2-7-15-15.4c0.2-8.1,7.2-14.7,15.4-14.6
		C66,45.4,72.5,52.2,72.4,60.5z"/>
	<path class="st3" d="M22.1,44.2c9.2,0,9.2,0,9.2,9c0,10.1,0,10.1-10.1,10.1c-9,0-9,0-9-8.8c0-2.5,0.1-5,0-7.5c-0.1-2.2,0.9-3,3-2.9
		C17.5,44.2,19.8,44.2,22.1,44.2z"/>
	<path class="st4" d="M57.6,52.2c1.5,0.3,2.4,1.2,2.3,2.8c-0.1,2,0.5,3.1,2.8,3c1.5-0.1,2.8,0.5,2.9,2.1c0.1,1.7-1,2.8-2.7,2.8
		c-2,0-3.1,0.5-2.9,2.8c0.1,1.7-0.9,2.9-2.6,2.9c-1.5,0-2.4-1.2-2.3-2.7c0.1-2.1-0.7-3-2.9-2.9c-1.8,0.1-2.9-0.9-2.8-2.6
		c0.1-1.5,1.2-2.4,2.7-2.3c2.5,0.2,3-1.2,3-3.4C55.1,53,56.2,52.3,57.6,52.2z"/>
</g>
<g>
</g>
<g>
</g>
<g>
</g>
<g>
</g>
<g>
</g>
<g>
</g>
<g>
</g>
<g>
</g>
<g>
</g>
<g>
</g>
<g>
</g>
<g>
</g>
<g>
</g>
<g>
</g>
<g>
</g>
</svg>
