<?xml version="1.0" encoding="utf-8"?>
<!-- Generator: Adobe Illustrator 23.0.2, SVG Export Plug-In . SVG Version: 6.00 Build 0)  -->
<svg version="1.1" id="Layer_1" xmlns="http://www.w3.org/2000/svg" xmlns:xlink="http://www.w3.org/1999/xlink" x="0px" y="0px"
	 viewBox="0 0 70 69.8" style="enable-background:new 0 0 70 69.8;" xml:space="preserve">
<style type="text/css">
	.st0{fill:#6269B1;}
	.st1{fill:#CECEE8;}
	.st2{fill:#FEFEFF;}
	.st3{fill:#FDFDFE;}
	.st4{fill:#686EB3;}
</style>
<g>
	<path class="st0" d="M0,39.5c0.1-3.2,1.8-7.8,5.4-11.5c7.3-7.5,14.7-14.9,22.2-22.2C34.6-1,45-1.9,52.9,3.4
		c8.3,5.6,11.6,15.3,7.7,24.5c-1.2,2.9-1.2,4.3,1.5,6.3c7.1,5.4,9.4,13.4,6.9,21.8c-2.3,7.4-9.6,13.3-17.9,13.8
		c-6.9,0.4-12.8-2.5-16.9-8c-1.8-2.5-3-2.5-5.7-1.4C14.7,66.4-0.1,56.6,0,39.5z"/>
	<path class="st1" d="M57.8,20c-0.5,2.7-0.9,5.3-2.1,7.8c-0.8,1.7-1.9,2.6-3.9,2.4c-4.4-0.4-8.6,0.5-12.3,3c-1.4,1-2.4,0.7-3.5-0.4
		c-4.2-4.3-8.4-8.5-12.7-12.7c-1.5-1.4-1-2.5,0.3-3.8c2.5-2.4,4.8-5.1,7.5-7.3c5.2-4.2,11-5.3,17.3-2.6C54.3,8.9,56.6,14.1,57.8,20z
		"/>
	<path class="st2" d="M4.8,40.8c-0.2-2.7,1-5.7,3.2-8.5c2.4-3,5.4-5.4,7.9-8.3c1.8-2.1,3.1-1.7,4.9,0.2c3.7,3.9,7.4,7.6,11.3,11.3
		c1.8,1.7,1.9,3.1,0.7,5.2c-2,3.4-3,7.1-2.5,11c0.3,2.5-1.1,3.6-3.1,4.5C16.3,60.9,4.8,53.4,4.8,40.8z"/>
	<path class="st3" d="M35,49.8c0.1-8.5,6.7-14.9,15.3-14.9c8.5,0.1,14.9,6.7,14.7,15.4c-0.2,8.3-6.8,14.8-15,14.7
		C41.7,65,35,58.2,35,49.8z"/>
	<path class="st4" d="M58,49.3c0,1.6-0.6,2.8-1.9,2.8c-2.5,0.1-3.6,0.9-3.6,3.5c0,1.3-1.1,2.1-2.3,2.2c-1.4,0.1-2.3-0.8-2.3-2.1
		c0.1-2.5-0.8-3.7-3.4-3.5c-1.3,0.1-2.3-0.8-2.2-2.2c0-1.4,0.8-2.7,2.4-2.6c2.4,0.1,3.3-0.9,3.2-3.2c-0.1-1.1,0.6-1.9,1.7-2.1
		c1.1-0.2,2.4,0.1,2.5,1.1c0.3,3.1,2.1,4.4,4.9,4.8C57.4,48.1,57.7,49,58,49.3z"/>
</g>
<g>
</g>
<g>
</g>
<g>
</g>
<g>
</g>
<g>
</g>
<g>
</g>
</svg>
