<?xml version="1.0" encoding="utf-8"?>
<!-- Generator: Adobe Illustrator 23.0.2, SVG Export Plug-In . SVG Version: 6.00 Build 0)  -->
<svg version="1.1" id="Layer_1" xmlns="http://www.w3.org/2000/svg" xmlns:xlink="http://www.w3.org/1999/xlink" x="0px" y="0px"
	 viewBox="0 0 85 84.8" style="enable-background:new 0 0 85 84.8;" xml:space="preserve">
<style type="text/css">
	.st0{fill:#F05D43;}
	.st1{fill:#FEC6BC;}
	.st2{fill:#FEFDFC;}
	.st3{fill:#FEC7BD;}
	.st4{fill:#FDC1B6;}
	.st5{fill:#F26951;}
	.st6{fill:#F1664E;}
	.st7{fill:#F16249;}
	.st8{fill:#F1634A;}
	.st9{fill:#FBB3A6;}
	.st10{fill:#F1644B;}
</style>
<g>
	<path class="st0" d="M64.7,84.8c-7.7-0.7-14-4.2-17.8-11.8c-2.1-4.2-2.1-4.2-5.3-1c-2.5,2.5-4.9,5-7.4,7.4c-3.8,3.6-8.2,3.7-12,0.1
		C15.7,73.3,9.3,66.9,3.1,60.4c-4.4-4.6-4.1-8.9,0.4-13.5C18,32.4,32.6,18.1,46.9,3.4C51.2-1,57.6-1.2,61.7,3.3
		C67.4,9.4,73.5,15.1,79.3,21c3.8,3.9,4.3,7.5,1.9,11.1c-0.7,1.1-1.7,2-2.7,3c-2.3,2.4-4.8,4.7-7.1,7.1c-2,2.1-1.9,2.6,0.8,3.8
		c6.3,2.6,10,7.2,12.1,13.6c2.6,8.1-2.2,19.4-11,23.1C70.8,83.8,68.1,84.8,64.7,84.8z"/>
	<path class="st1" d="M42.6,62.8c-0.4-0.3-0.9-0.7-1.4-1.1c-7-6.9-13.9-13.9-20.9-20.8c-1.3-1.3-1.6-2.3-0.1-3.7
		c6.4-6.3,12.8-12.7,19.1-19.1c1.2-1.2,2.1-1.2,3.3,0c7,7.1,14.1,14.2,21.2,21.2c1.5,1.5,0.9,2.4-0.2,3.7c-1.5,1.9-3.7,2.1-5.7,2.8
		c-4.5,1.7-7.9,4.5-10.7,8.3c-0.9,1.2-1.2,2.3-1.2,3.6c0,1.6-0.8,2.9-1.5,4.1C44.1,62.5,43.6,63,42.6,62.8z"/>
	<path class="st2" d="M65,49.8c7-0.6,14.9,5.5,14.9,14.6c0.1,7.7-5.8,15-15.1,15.3c-8,0.3-14.6-7.2-15-15.4
		C49.6,57.7,56.6,49.1,65,49.8z"/>
	<path class="st3" d="M38.8,66.7c0.1,0.9-0.4,1.4-0.8,1.8c-2.5,2.5-4.9,4.9-7.4,7.4c-1.3,1.3-2.5,1.2-4,0.4
		c-1.2-0.7-2.2-1.5-3.1-2.5C18,68.4,12.6,63.1,7.2,57.6c-3.2-3.2-3.1-4.1,0.1-7.4c2-2,4-4,6-6c1.1-1.2,2.1-1.4,3.3-0.1
		c7.1,7.2,14.3,14.4,21.5,21.5C38.4,66,38.6,66.4,38.8,66.7z"/>
	<path class="st3" d="M53.7,4.9c1.9-0.1,3.3,0.7,4.3,1.7c6,6.3,12.7,12.1,18.3,18.8c1.5,1.8,1.4,3.1,0.1,4.7
		c-0.2,0.3-0.5,0.5-0.7,0.7c-6.2,7.1-6.2,7.1-12.8,0.5c-5.2-5.2-10.4-10.3-15.5-15.6c-2.8-2.8-2.8-2.8,0.1-5.8
		c1.4-1.4,2.8-2.8,4.3-4.2C52.3,5.3,53,4.8,53.7,4.9z"/>
	<path class="st4" d="M41,54c-4.2-0.6-5-1.6-5.1-5.4c0-1.5,1.4-3,0.1-4.5c-0.9-1.8-0.1-3.5,0.2-5.2c0.5-1.5,1-2.9,2.6-3.7
		c2.7-0.4,5.3-1.4,8.1-1.4c0.9,1.9,1.8-0.1,2.8,0c1.7,0.3,3.6-0.1,4.2,2.2c-6.8,1.4-6.8,1.4-5.9,8.9c-0.8,0.2-0.9,0.6-0.5,1.3
		c0.6,0.9,0.2,1.4-0.7,1.7c-0.5-0.1-0.9-0.3-1.3-0.6c-1.9-1.6-3.9-2.9-6.1-0.7c-2,2.1-0.5,3.9,1,5.6C41,52.7,41.3,53.3,41,54z"/>
	<path class="st5" d="M41,54c-0.3-0.7-1-0.8-1.5-1.1c-1.8-1.1-3-2.6-2.4-4.9c0.5-2,1.8-3.5,3.9-3.9c2.1-0.4,3.8,0.4,5,2.2
		c0.4,0.5,0.6,1.2,0.9,1.7C46.3,51.2,45.1,54,41,54z"/>
	<path class="st6" d="M46.9,33.9c-2.2,2.4-5,2.4-7.9,2.1C35.9,33.6,35.8,31,38,28c0.9-0.4,1.8-0.9,2.7-1c3.8-0.5,5.5,0.7,6.2,4.4
		C47.1,32.2,46.9,33,46.9,33.9z"/>
	<path class="st7" d="M48.1,44.9c-0.6-1.3-2.1-2-2.2-3.7c-0.4-4.3,2.4-6.7,6.6-5.4c0.5,0.1,1,0.2,1.5,0.3c0.1,0.3,0.3,0.6,0.4,0.9
		C56.3,42.7,54.6,44.9,48.1,44.9z"/>
	<path class="st8" d="M37.3,38.9C37,40.7,37.2,42.5,36,44c-0.5,0-1.1-0.2-1.5,0c-1.9,0.9-3.6,1.1-5-1c-1.3-1.9-1.6-3.8-0.3-5.8
		c0.3-0.4,0.5-0.8,0.7-1.3C34.4,33.8,36.2,34.5,37.3,38.9z"/>
	<path class="st9" d="M37.3,38.9c-2-3.8-2.8-4.1-7.2-2.9c0.7-2.3,2.6-2.7,4.2-1.9c3.4,1.7,1.8-0.5,1.7-1.8c-0.1-1.8-0.3-3.6,2-4.4
		c-1.3,2.9-0.9,5.5,1.1,7.9C37.3,36.2,38.6,38.4,37.3,38.9z"/>
	<path class="st10" d="M73,64.5c-0.1,1.5-1,2.5-2.4,2.5c-2.2,0-3,0.9-2.8,3c0,0.4-0.3,1-0.6,1.3c-0.6,0.8-1.3,1.7-2.4,1.5
		c-1-0.2-1.9-0.9-1.9-2c0.1-2.8-1-4-3.8-3.9c-1.2,0-2.1-1-2.1-2.3c0-1.6,0.9-2.6,2.5-2.5c2.7,0.1,3.5-1.2,3.5-3.6
		c0-1.1,0.8-1.9,1.8-2.2c1.3-0.3,2.5,0.7,2.7,1.7c0.4,2.8,1.3,4.5,4.5,4.4C72.5,62.4,72.9,63.5,73,64.5z"/>
</g>
<g>
</g>
<g>
</g>
<g>
</g>
<g>
</g>
<g>
</g>
<g>
</g>
<g>
</g>
<g>
</g>
<g>
</g>
<g>
</g>
<g>
</g>
<g>
</g>
<g>
</g>
<g>
</g>
<g>
</g>
</svg>
