<?xml version="1.0" encoding="utf-8"?>
<!-- Generator: Adobe Illustrator 23.0.2, SVG Export Plug-In . SVG Version: 6.00 Build 0)  -->
<svg version="1.1" id="Layer_1" xmlns="http://www.w3.org/2000/svg" xmlns:xlink="http://www.w3.org/1999/xlink" x="0px" y="0px"
	 viewBox="0 0 75.4 69.3" style="enable-background:new 0 0 75.4 69.3;" xml:space="preserve">
<style type="text/css">
	.st0{fill:#F28058;}
	.st1{fill:#FDD587;}
	.st2{fill:#FEFCFC;}
	.st3{fill:#F5A285;}
	.st4{fill:#F3855F;}
</style>
<g>
	<path class="st0" d="M23.3,0.2c4.8-0.3,9.2,1.3,13.2,4.1c1.2,0.8,1.9,0.8,3-0.1c11.2-8.8,31-3.6,35.2,12.6
		c1.3,4.9,0.7,9.9-1.4,14.5c-1,2.2-0.8,3.8,0.2,5.9c2.3,5.2,2.3,10.3-0.2,15.7c-2.6,5.8-11.6,11.2-19.7,8.8c-3-0.9-4.6-0.2-6.5,1.7
		c-1.6,1.6-3.5,3.1-5.4,4.3c-3,2-6,1.9-8.7-0.4c-10.3-8.6-20-18-27.3-29.3c-2.5-3.9-4.3-8.3-5.3-12.7c-1.4-6.2,1-11.8,4.7-16.7
		C9.5,3,15.5-0.2,23.3,0.2z"/>
	<path class="st1" d="M23,5.2c4.5-0.1,8.4,0.9,11.5,4c1,1,2.2,1.6,3.4,1.8c1.3,0.3,1.9-1.2,2.8-1.8c3.9-2.6,7.8-4.6,12.8-4.1
		c13.1,1.2,19.2,11.9,15.5,23.5c-0.6,2-1.7,2-2.9,1.1c-7.1-5-14.8-2.4-20.3,2.3c-4.2,3.6-7.8,11.5-4.6,18.8c0.7,1.5,1.4,3,2.3,4.4
		c1.9,3.2,1.9,3.2-0.8,5.7c-0.2,0.2-0.5,0.5-0.7,0.7c-4,3.2-4.6,2.9-8.7-0.3c-4.1-3.2-7.8-6.7-11.3-10.5c-5-5.4-9.9-11-13.5-17.5
		c-1.5-2.8-2.9-5.9-3.5-9.1c-0.8-4.8,1.3-9,4.2-12.7C12.9,7,17.6,4.9,23,5.2z"/>
	<path class="st2" d="M54.1,57.2c-3.7-1.9-6.9-4.2-8.1-8.6c-1.6-5.5,0.2-10.1,4.8-13.8c4.5-3.7,10.1-3,14.6,0.2
		c7.6,5.4,6.1,17.4-2.3,21.3C60.2,58.1,57.2,58.2,54.1,57.2z"/>
	<path class="st3" d="M54.1,57.2c3,0.1,6.1,0.4,9-0.8c-0.4,0.5-0.8,1.4-1.2,1.4C59.2,58.1,56.5,59.4,54.1,57.2z"/>
	<path class="st4" d="M58.1,52.3c-1.9-0.1-2.9-0.9-2.9-2.4c0-1.8-0.5-2.8-2.5-2.7c-1.3,0.1-2.3-0.7-2.4-2c-0.1-1.3,1-2.4,2-2.6
		c2.2-0.3,2.9-1.4,3.3-3.4c0.2-0.9,1.2-2.1,2.6-1.9c1.3,0.2,2,1.2,1.9,2.5c-0.1,1.7,0.5,2.4,2.3,2.4c1.5-0.1,2.6,0.7,2.7,2.3
		c0.1,1.5-0.7,2.6-2.3,2.7c-1.9,0.1-2.6,1.1-2.7,2.8C60,51.4,59,51.9,58.1,52.3z"/>
</g>
<g>
</g>
<g>
</g>
<g>
</g>
<g>
</g>
<g>
</g>
<g>
</g>
<g>
</g>
<g>
</g>
<g>
</g>
<g>
</g>
<g>
</g>
<g>
</g>
<g>
</g>
<g>
</g>
<g>
</g>
</svg>
