<?xml version="1.0" encoding="utf-8"?>
<!-- Generator: Adobe Illustrator 23.0.2, SVG Export Plug-In . SVG Version: 6.00 Build 0)  -->
<svg version="1.1" id="Capa_1" xmlns="http://www.w3.org/2000/svg" xmlns:xlink="http://www.w3.org/1999/xlink" x="0px" y="0px"
	 viewBox="0 0 99 99.1" style="enable-background:new 0 0 99 99.1;" xml:space="preserve">
<style type="text/css">
	.st0{fill:#069077;}
	.st1{fill:#079178;}
	.st2{fill:#9CF5E5;}
	.st3{fill:#FDFDFD;}
	.st4{fill:#0D937B;}
</style>
<g>
	<path class="st0" d="M0.1,81.2c0-2.8-0.3-5.7,0.1-8.5c0.6-4.6,3.4-7.8,7.7-9.7c13.6-6.2,28-7,42.5-5.5c4.5,0.5,7.9,0,11.9-2.7
		c10.2-7,23-4.6,31.4,5c7.3,8.3,7.2,21.8-0.1,30.3c-8.2,9.5-20.9,11.6-31.5,4.9c-2.4-1.5-4.6-2.2-7.4-2.1C39,93,23.4,93,7.7,93
		C0,93,0,93,0,85.2C0,83.9,0,82.6,0.1,81.2C0.1,81.2,0.1,81.2,0.1,81.2z"/>
	<path class="st1" d="M15,24C15,10.7,26-0.1,39.2,0C52.2,0.1,63,10.9,63,23.9C63.1,38.2,51.4,51.1,38.6,51C26.4,50.9,15,37.8,15,24z
		"/>
	<path class="st2" d="M29.7,87c-6.7,0-13.3-0.1-20,0c-2.8,0.1-3.7-0.9-3.8-3.7c-0.5-13,0.5-14.3,13.2-18c9.6-2.7,19.4-2.6,29.2-2.1
		c3.4,0.2,5.3,1.2,3.7,5.3c-1.9,4.8-1.7,9.9,0.5,14.6c1.9,3.9,0.1,4-3,4C43,86.9,36.3,87,29.7,87z"/>
	<path class="st3" d="M93,75c0,10-8,18-18.1,18C65,93,57,84.9,57,74.8C57.1,65,65,57.1,74.9,57C84.9,56.9,93,64.9,93,75z"/>
	<path class="st2" d="M57,24c0.1,10.6-9,21.1-18.1,21c-9-0.1-17.8-10.3-17.9-20.7C21,14.2,28.9,6.1,38.9,6C48.9,6,57,13.9,57,24z"/>
	<path class="st4" d="M75,65.2c1.9,0.3,3.1,1.3,3,3.3c-0.1,2.4,0.5,3.8,3.3,3.5c1.9-0.2,3.3,0.8,3.5,2.7c0.1,2.2-1.3,3.4-3.5,3.2
		c-2.8-0.2-3.4,1.1-3.3,3.5c0.1,2-1.1,3.2-3,3.2c-1.9,0-3.1-1.3-3-3.2c0.3-3-1.2-3.7-3.8-3.5c-1.8,0.1-2.9-1.1-3-2.7
		c-0.1-1.9,1-3.3,3-3.2c3.2,0.3,4-1.2,3.8-4.1C72,66.2,73.4,65.5,75,65.2z"/>
</g>
</svg>
