<?xml version="1.0" encoding="utf-8"?>
<!-- Generator: Adobe Illustrator 23.0.2, SVG Export Plug-In . SVG Version: 6.00 Build 0)  -->
<svg version="1.1" id="Layer_1" xmlns="http://www.w3.org/2000/svg" xmlns:xlink="http://www.w3.org/1999/xlink" x="0px" y="0px"
	 viewBox="0 0 77.5 90.2" style="enable-background:new 0 0 77.5 90.2;" xml:space="preserve">
<style type="text/css">
	.st0{fill:#355C73;}
	.st1{fill:#9BD9FE;}
	.st2{fill:#FDFDFD;}
	.st3{fill:#99D6FB;}
	.st4{fill:#88C2E4;}
	.st5{fill:#386077;}
	.st6{fill:#3D6278;}
	.st7{fill:#467089;}
</style>
<g>
	<path class="st0" d="M0,45.3c0-9.7,0-19.3,0-29c0-4.7,0.2-4.8,4.7-4.9c2.2,0,4.3,0,6.5,0c2.1,0,4.2,0.3,5.8-1.9
		c1.4-1.9,4.5,0.4,5.8-1.9c1-2,2.3-3.7,4-5.1c5.3-4.3,12.3-3.3,16,2.5c1.4,2.2,2.4,4.4,5.5,3.7c0.3-0.1,0.8,0,1,0.2
		c3.4,4,8,2,12,2.4c0.7,0.1,1.3,0,2,0c3.7,0.2,3.9,0.4,4,4.1c0.1,9.5,0,19,0,28.5c0,1.7,0.1,3.3,0,5c-0.2,2.3,0.6,3.8,2.5,5.4
		C80.2,63.2,80,77.6,69.4,86c-8,6.4-20.2,5.3-26.6-2.4c-2.4-3-4.9-3.7-8.5-3.6C24.7,80.1,15,80,5.4,80C0.1,80,0,80,0,74.8
		C0,65,0,55.2,0,45.3z"/>
	<path class="st1" d="M24.3,49c-0.6,1-1.3,2-1.7,3c-1.3,4-0.2,5.6,4,5.6c4.2,0,8.3,0,12.5,0c1.7,0,1.9,0.6,1.2,2.1
		c-1.3,2.5-1.7,5.9-3.7,7.4c-2,1.6-5.5,0.4-8.3,0.5c-4.2,0.1-8.3,0.1-12.5,0c-3.4,0-3.5-0.1-3.5-3.6c0-13,0-26,0-39
		c0-1.3,0-2.7-0.1-4c-0.2-1.3-1-2.1-2.4-2.1c-1.4,0-2.2,0.8-2.4,2.1c-0.2,1-0.1,2-0.1,3c0,14.5,0,29,0,43.5c0,4.7,0.4,5.2,5.1,5.2
		c6.7,0.1,13.3,0,20,0c1.2,0,2.3,0,3.5,0c0.9,0,1.7,0.5,1.6,1.5c-0.1,0.8-1,0.7-1.6,0.7c-2.5,0-5,0-7.5,0c-6.8,0-13.7-0.1-20.5,0
		c-2.1,0-3-0.6-2.9-2.8c0.1-17.5,0.1-35,0-52.5c0-2.5,0.9-3.3,3.2-3.1c1,0.1,2,0,3,0c1.5,0.1,3.1-0.5,4.3,0.5
		c1.2,0.9,0.5,2.5,0.6,3.8c0.1,2.1,1.3,3,3.2,3c9.5,0,19,0,28.5,0c2.7,0,3.5-1.6,3.2-3.9c-0.3-2.6,0.8-3.4,3.4-3.4
		c9.5,0.3,7.6-1.3,7.7,7.5c0.1,7.3,0,14.7,0,22c0,1.2,0,2.3-0.1,3.5c0,0.3-0.4,0.7-0.5,0.7c-0.5-0.1-1.2-0.4-1.2-0.7
		c-0.2-1.1-0.4-2.3-0.4-3.4c0-7.3,0-14.7,0-22c0-2.1,0.3-5-2.5-5.1c-3.1-0.1-2.4,3-2.4,5c-0.1,7.5-0.1,15,0,22.5
		c0,2.6-0.6,4.2-3.4,4.5c-2.3,0.2-4,2.5-6.6,1.9c-1.1-3.5-3.5-5.8-7.1-6.5c-1.4-0.3-2.6-0.4-2.5-2.2c0.4-1.7,1.8-2.8,2.5-4.3
		c1.2-2.8,0.9-5.2-1.6-7.1c-1.7-1.3-3.6-1.9-5.5-0.4c-2.4,1.8-3.1,4.2-2.3,7.1c0.5,1.8,2.2,3,2.8,4.7c0.2,1.4-0.5,2.1-1.9,2.2
		C27.7,46.5,25.8,47.4,24.3,49z"/>
	<path class="st2" d="M72.4,70.3c0,8.2-6.6,14.7-14.9,14.7c-8.5,0-15.2-6.7-15.1-15.1c0.1-8.1,7-14.9,15-14.9
		C65.7,55,72.4,61.8,72.4,70.3z"/>
	<path class="st3" d="M33.4,18.8c-3.3,0-6.7-0.1-10,0c-1.8,0-2.2-0.9-2.2-2.5c0-1.5,0.2-2.7,2.1-2.5c2.6,0.2,3.8-0.9,4.2-3.6
		c0.4-2.8,3.6-5.1,6-5.2c2.5-0.2,5.3,1.7,6.2,4.9c0.7,2.5,1.6,4.3,4.6,4c2-0.2,1.9,1.3,1.9,2.7c0.1,1.7-0.7,2.4-2.4,2.3
		C40.3,18.8,36.8,18.8,33.4,18.8z"/>
	<path class="st4" d="M36.2,43.8c-0.1,1.5,0.8,1.7,2.1,2.1c3.6,0.9,6.9,2.4,6.9,7c-5-6.9-11.2-8.4-19.1-4.5
		c-0.6,0.3-1.2,0.5-1.8,0.7c0.6-2.5,2.8-2.8,4.8-3.2c1.3-0.2,2.2-0.4,2.1-1.9C32.8,42.3,34.5,42.4,36.2,43.8z"/>
	<path class="st5" d="M36.2,43.8c-1.7,0-3.3,0.1-5,0.1c-4.1-2.7-5.4-7.1-3.2-10.4c2.2-3.3,5-4.3,8.1-2.8c3.7,1.8,5.2,5.5,3.7,9.1
		C39.1,41.5,37.9,42.9,36.2,43.8z"/>
	<path class="st6" d="M57.2,78.5c-1.5-0.4-2.2-1.5-2.1-3c0.1-2.1-0.7-3-2.9-2.8c-1.7,0.1-2.9-0.8-2.9-2.6c0-1.5,1.1-2.4,2.6-2.4
		c2.5,0.1,3.2-1,3.1-3.3c0-1.5,0.9-2.6,2.5-2.4c1.3,0.2,2.6,1,2.4,2.6c-0.2,2.4,0.8,3.3,3.1,3.1c1.3-0.1,2.2,0.7,2.3,2.1
		c0.1,1.5-0.7,2.8-2.2,2.7c-2.7-0.1-3.3,1.2-3.3,3.5C59.8,77.5,58.6,78.3,57.2,78.5z"/>
	<path class="st7" d="M34,8.9c1.4,0.3,2.3,1.1,2.2,2.7C36,13,35,13.9,33.5,13.8c-1.5-0.1-2.4-1.1-2.2-2.6C31.4,9.6,32.4,8.8,34,8.9z
		"/>
</g>
<g>
</g>
<g>
</g>
<g>
</g>
<g>
</g>
<g>
</g>
<g>
</g>
<g>
</g>
<g>
</g>
<g>
</g>
<g>
</g>
<g>
</g>
<g>
</g>
<g>
</g>
<g>
</g>
<g>
</g>
</svg>
